<?xml version="1.0" standalone="no"?>
<svg
  width="600"
  height="600"
  viewBox="0 0 600 600"
  xmlns="http://www.w3.org/2000/svg"
>
  <g transform="translate(300,300)">
    <path d="M120.2,-199.5C148.9,-168.6,160.4,-123.6,165.1,-84C169.7,-44.4,167.5,-10.3,163,23.7C158.6,57.8,151.8,91.7,133.5,119.3C115.2,146.8,85.4,167.9,47.2,194.5C9.1,221,-37.3,253,-65.9,238.3C-94.6,223.6,-105.5,162.2,-130.6,120.3C-155.8,78.5,-195.2,56.1,-206.4,25.3C-217.6,-5.5,-200.7,-44.7,-181.3,-81C-162,-117.4,-140.2,-150.8,-109.6,-180.8C-78.9,-210.8,-39.5,-237.4,3.2,-242.3C45.8,-247.2,91.5,-230.5,120.2,-199.5Z" fill="#417b5a" />
  </g>
</svg>
    