<?xml version="1.0" encoding="iso-8859-1"?>
<!-- Generator: Adobe Illustrator 19.0.0, SVG Export Plug-In . SVG Version: 6.00 Build 0)  -->
<svg version="1.1" id="Capa_1" xmlns="http://www.w3.org/2000/svg" xmlns:xlink="http://www.w3.org/1999/xlink" x="0px" y="0px"
	 viewBox="0 0 512 512" style="enable-background:new 0 0 512 512;" xml:space="preserve">
<g>
	<path style="fill:#FFB69E;" d="M272.212,512c-3.749,0-7.547-0.946-11.035-2.939c-10.691-6.106-14.407-19.723-8.301-30.414
		l36.788-64.41l15.338-79.122c2.342-12.086,14.037-19.989,26.127-17.642c12.086,2.343,19.985,14.041,17.642,26.127l-16.039,82.737
		c-0.464,2.394-1.318,4.696-2.528,6.813l-38.615,67.608C287.477,507.962,279.953,512,272.212,512z"/>
	<path style="fill:#FFB69E;" d="M400.483,512c-1.134,0-2.282-0.087-3.436-0.266c-12.167-1.882-20.503-13.272-18.621-25.439
		l13.114-84.751l-45.852-67.911c-6.889-10.204-4.203-24.06,6.001-30.949c10.204-6.891,24.059-4.202,30.949,6.001l50.743,75.155
		c3.145,4.657,4.414,10.329,3.555,15.883l-14.451,93.39C420.781,504.125,411.289,511.999,400.483,512z"/>
</g>
<path style="fill:#6EAA50;" d="M337.612,401.168l11.16-57.566c2.343-12.087-5.556-23.785-17.642-26.127
	c-12.09-2.346-23.785,5.556-26.127,17.642l-11.634,60.016L337.612,401.168z"/>
<path style="fill:#5A915A;" d="M388.595,397.186l40.33-19.944l-46.287-68.556c-6.889-10.204-20.745-12.892-30.949-6.001
	c-10.204,6.889-12.891,20.745-6.001,30.949L388.595,397.186z"/>
<g>
	<circle style="fill:#FFB69E;" cx="312.18" cy="128.599" r="40.316"/>
	<path style="fill:#FFB69E;" d="M430.48,50.5c-9.153-1.239-17.573,5.175-18.811,14.324l-11.212,82.803l-41.959,24.595
		l-89.899,25.872l-54.015,25.474l-51.432-29.146c-8.036-4.553-18.237-1.731-22.789,6.303c-4.552,8.033-1.731,18.236,6.303,22.789
		l58.691,33.261c4.527,2.565,10.048,2.901,14.912,0.786l54.301-23.616l26.054,123.787l100.827-21.222l-28.489-135.355l51.058-28.365
		c4.61-2.56,7.741-7.147,8.449-12.372l12.336-91.106C446.043,60.16,439.63,51.738,430.48,50.5z"/>
</g>
<path style="fill:#82BE50;" d="M372.961,201.154c7.004-3.891,20.551-11.416,28.489-15.827l-8.973-33.022l-33.979,19.917
	l-18.563,5.342c4.707,15.99-8.716,28.525-21.589,28.525c-10.356,0-18.51-6.925-21.437-16.142l-28.309,8.147l-36.511,17.219
	l9.615,32.925l32.866-14.293l26.054,123.787l100.827-21.222L372.961,201.154z"/>
<path style="fill:#A5C8CD;" d="M199.177,256.477l-49.937-115.32l2.579-26.393l-44.05,19.075l21.013,16.177l49.937,115.32
	c1.822,4.206,5.924,6.72,10.234,6.72c1.478,0,2.982-0.296,4.424-0.92C199.027,268.688,201.623,262.126,199.177,256.477z
	 M142.638,124.049l-2.385,24.407l-19.432-14.959L142.638,124.049z"/>
<circle style="fill:#FFA50A;" cx="377.295" cy="24.784" r="24.784"/>
<ellipse transform="matrix(-0.3974 -0.9177 0.9177 -0.3974 80.5512 216.8016)" style="fill:#C8E6EB;" cx="111.462" cy="81.952" rx="56.308" ry="41.799"/>
<path style="fill:#87AFB9;" d="M149.811,65.344c-9.967-23.017-29.58-37.682-47.911-37.681l0,0c-1.343,0.13-6.425-0.15-12.821,2.618
	C67.896,39.454,60.741,70.025,73.1,98.563c11.083,25.592,37.528,45.11,60.732,35.063C155.015,124.452,162.169,93.881,149.811,65.344
	z M143.546,104.205c-2.194,9.376-7.217,16.191-14.144,19.19c-17.355,7.515-37.667-9.85-46.074-29.264
	c-5.033-11.621-6.441-23.849-3.964-34.431c2.194-9.376,7.217-16.191,14.144-19.19c16.829-7.288,37.353,9.124,46.074,29.264
	C144.616,81.394,146.023,93.623,143.546,104.205z"/>
<g>
</g>
<g>
</g>
<g>
</g>
<g>
</g>
<g>
</g>
<g>
</g>
<g>
</g>
<g>
</g>
<g>
</g>
<g>
</g>
<g>
</g>
<g>
</g>
<g>
</g>
<g>
</g>
<g>
</g>
</svg>
